<svg width="86" height="25" viewBox="0 0 86 25" fill="none" xmlns="http://www.w3.org/2000/svg">
<path d="M32.6964 6.04972C34.5408 6.33796 36.2041 6.77703 36.2041 8.46626C36.2041 10.1555 34.3597 10.7923 32.5656 10.7923C31.3818 10.7923 29.8828 10.3767 29.3295 9.47846C29.2753 9.3767 29.2482 9.26269 29.251 9.14744C29.2537 9.03218 29.2861 8.91959 29.3451 8.82052C29.4041 8.72146 29.4877 8.63927 29.5878 8.58191C29.6878 8.52455 29.801 8.49396 29.9163 8.49307H31.033C31.033 9.80357 31.8915 10.2326 32.579 10.2326C33.2665 10.2326 34.1786 9.80357 34.1786 8.49307C34.1786 7.93335 33.4107 7.73895 32.4482 7.59483C30.5904 7.30994 29.0947 6.75356 29.0947 5.24867C29.0947 3.66334 31.1068 3.03993 32.5253 2.98965C33.5783 2.98965 35.2551 3.42872 35.7749 4.58504C35.8086 4.68496 35.8184 4.79143 35.8032 4.89581C35.7881 5.00018 35.7485 5.09951 35.6877 5.18573C35.627 5.27195 35.5467 5.34261 35.4534 5.39199C35.3602 5.44136 35.2566 5.46805 35.1511 5.46988H33.9707C33.9707 3.98845 33.0585 3.54603 32.5522 3.54603C31.9687 3.54603 31.1102 3.98845 31.1102 5.22186C31.1102 5.76818 31.9821 5.96257 32.6829 6.06647L32.6964 6.04972Z" fill="white"/>
<path d="M42.683 10.5979C43.0453 10.0106 43.2175 9.3259 43.1759 8.63719V6.79043C43.1759 4.85652 42.968 3.54267 41.7205 3.54267C40.1343 3.54267 39.6414 4.85652 39.6414 6.79043V8.63719C39.6257 9.19288 39.7274 9.74563 39.9398 10.2594V10.2862C40.0001 10.4033 40.0696 10.5154 40.1478 10.6214L40.1746 10.6448H37.0525L37.1061 10.5812C37.4685 9.99387 37.6406 9.30914 37.5991 8.62043V2.36289C37.5991 0.945141 37.0525 0.351898 37.0525 0.351898H37.978C38.1966 0.350568 38.4132 0.392547 38.6154 0.475411C38.8176 0.558274 39.0013 0.680376 39.156 0.834656C39.3107 0.988936 39.4332 1.17233 39.5165 1.37424C39.5998 1.57615 39.6423 1.79256 39.6414 2.01097V4.14262C40.0941 3.4924 40.6273 2.9863 41.7071 2.9863C44.3463 2.9863 45.1914 4.73922 45.1914 6.89433V8.63719C45.1757 9.19288 45.2774 9.74563 45.4898 10.2594V10.2862C45.5501 10.4033 45.6196 10.5154 45.6978 10.6214L45.7212 10.6482H42.6025L42.6562 10.5812L42.683 10.5979Z" fill="white"/>
<path d="M54.7085 8.79136C54.6866 9.44144 54.8787 10.0808 55.2552 10.6113H53.8635C53.3168 10.6113 52.6931 10.1689 52.6931 9.62257C52.227 10.2728 51.6871 10.7789 50.6139 10.7789C47.9781 10.7789 46.5093 9.02598 46.5093 6.86751C46.5093 4.70905 47.9781 2.95948 50.6139 2.95948C51.0606 2.95633 51.5047 3.02653 51.9285 3.16729C52.4605 3.39195 53.0335 3.50323 53.6109 3.49399C54.1883 3.48476 54.7575 3.35522 55.282 3.11366C54.8906 3.70891 54.6991 4.4133 54.7354 5.12465L54.7085 8.79136ZM50.6005 10.1823C52.1867 10.1823 52.6797 8.10427 52.6797 6.85411C52.6797 4.93361 52.1867 3.51921 50.6005 3.51921C49.353 3.51921 48.5214 4.93361 48.5214 6.87087C48.5214 8.80812 49.353 10.2225 50.6005 10.2225V10.1823Z" fill="white"/>
<path d="M64.4101 8.59698C64.4101 10.0114 64.9567 10.608 64.9567 10.608H64.2156C63.8477 10.6104 63.487 10.5059 63.1774 10.3071C62.8678 10.1084 62.6226 9.82397 62.4718 9.48851C62.159 9.89462 61.755 10.2215 61.2925 10.4427C60.8299 10.664 60.3218 10.7734 59.8092 10.7621C57.5355 10.7621 56.2075 9.00923 56.2075 6.85076C56.2075 4.6923 57.3779 2.94608 59.8226 2.94608C60.3105 2.93427 60.7949 3.03203 61.2401 3.23215C61.6852 3.43227 62.0798 3.72966 62.3947 4.1024V2.34614C62.3947 0.928387 61.8481 0.335144 61.8481 0.335144H62.5758C63.4879 0.335144 64.4101 1.07586 64.4101 1.98416V8.59698ZM60.3021 10.1823C61.8749 10.1823 62.3813 8.10428 62.3813 6.85411C62.3813 4.93362 61.8883 3.51922 60.3021 3.51922C59.0546 3.51922 58.2364 4.93362 58.2364 6.87087C58.2364 8.80813 59.0546 10.2225 60.3021 10.2225V10.1823Z" fill="white"/>
<path d="M74.1119 3.10361C73.4489 3.76701 72.9115 4.54484 72.5257 5.39949L69.5075 12.1296C69.3675 12.5184 69.1119 12.8551 68.7751 13.0947C68.4383 13.3343 68.0363 13.4653 67.6229 13.4703C67.1435 13.4613 66.6809 13.2926 66.3083 12.991C66.0116 12.6939 65.84 12.2945 65.8288 11.8749C65.827 11.7628 65.8475 11.6516 65.8892 11.5476C65.9309 11.4435 65.9928 11.3488 66.0715 11.269C66.1501 11.1891 66.2439 11.1257 66.3473 11.0824C66.4507 11.0391 66.5617 11.0169 66.6738 11.0169H67.8442C67.2976 11.5498 67.2339 12.8871 67.7134 12.8871C68.5048 12.8871 69.0246 11.6905 69.0246 11.6905C69.2862 11.1208 69.0917 10.2762 68.8301 9.70302L66.9656 5.53021C66.5592 4.63583 66.0061 3.81565 65.3291 3.10361H68.6423C68.6155 3.25745 68.602 3.41332 68.6021 3.56949C68.5993 4.03204 68.6978 4.4896 68.8905 4.91015L70.4868 8.49642L72.1635 4.74257C72.3963 4.23423 72.4643 3.66588 72.358 3.11701L74.1119 3.10361Z" fill="white"/>
<path d="M33.7091 14.1808C35.5938 14.1808 36.0096 15.1562 36.0096 16.4801C36.0105 16.5884 35.99 16.6958 35.9494 16.7961C35.9087 16.8965 35.8487 16.9879 35.7727 17.0651C35.6967 17.1423 35.6063 17.2037 35.5065 17.246C35.4068 17.2882 35.2997 17.3104 35.1913 17.3113H33.9975C33.9975 17.3113 34.9834 14.764 33.7359 14.764C32.1497 14.764 31.6702 15.7394 31.6702 17.6632V19.8451C31.6541 20.4009 31.7558 20.9537 31.9686 21.4673V21.4942C32.028 21.6118 32.0976 21.7239 32.1766 21.8293L32.2 21.8561H29.0813L29.135 21.7891C29.2792 21.5947 29.6279 20.9847 29.6279 19.8284V16.3594C29.6352 15.8462 29.5476 15.336 29.3697 14.8545C29.3033 14.679 29.2155 14.5124 29.1081 14.3585C30.2275 14.8338 31.4893 14.8483 32.6192 14.3987C32.974 14.2561 33.3536 14.1855 33.7359 14.1909L33.7091 14.1808Z" fill="white"/>
<path d="M42.3442 21.8327C42.7065 21.2454 42.8787 20.5606 42.8371 19.8719V18.0252C42.8371 16.0913 42.6292 14.7774 41.3817 14.7774C39.7955 14.7774 39.3026 16.0913 39.3026 18.0252V19.8719C39.2869 20.4276 39.3886 20.9804 39.601 21.4941V21.5209C39.6613 21.638 39.7308 21.7501 39.8089 21.8561L39.8358 21.8796H36.717L36.7673 21.8159C36.9115 21.6215 37.2603 21.0115 37.2603 19.8552V13.5976C37.2603 12.1799 36.717 11.5866 36.717 11.5866H37.6392C38.0766 11.5875 38.4957 11.7615 38.8049 12.0706C39.1142 12.3797 39.2883 12.7986 39.2892 13.2357V15.3673C39.7452 14.7171 40.2751 14.211 41.3549 14.211C43.9941 14.211 44.8392 15.9639 44.8392 18.1224V19.8619C44.8235 20.4176 44.9252 20.9703 45.1376 21.4841V21.5109C45.1979 21.628 45.2674 21.7401 45.3455 21.8461L45.3724 21.8729H42.2503L42.3039 21.8058L42.3442 21.8327Z" fill="white"/>
<path d="M53.6958 14.3384C53.032 15.0023 52.4945 15.7814 52.1096 16.6376L49.0915 23.3644C48.9535 23.7545 48.6985 24.0925 48.3612 24.3325C48.0239 24.5724 47.6208 24.7025 47.2068 24.705C46.7275 24.696 46.2648 24.5274 45.8923 24.2258C45.595 23.929 45.4233 23.5294 45.4127 23.1097C45.4109 22.9976 45.4315 22.8863 45.4731 22.7823C45.5148 22.6783 45.5768 22.5836 45.6554 22.5037C45.7341 22.4239 45.8278 22.3605 45.9313 22.3172C46.0347 22.2739 46.1457 22.2516 46.2578 22.2516H47.4281C46.8815 22.7845 46.8178 24.1219 47.2974 24.1219C48.0888 24.1219 48.6086 22.9287 48.6086 22.9287C48.8701 22.3555 48.6756 21.5109 48.4141 20.9411L46.5596 16.7583C46.1532 15.8639 45.6001 15.0437 44.9231 14.3317H48.2363C48.2096 14.4855 48.1962 14.6414 48.1961 14.7975C48.1929 15.2601 48.2913 15.7178 48.4845 16.1382L50.0807 19.7245L51.7575 15.9706C51.9903 15.4623 52.0583 14.8939 51.952 14.3451L53.6958 14.3384Z" fill="white"/>
<path d="M64.3566 21.8595C64.7208 21.2716 64.8942 20.5856 64.8529 19.8954V17.7269C64.8529 15.8064 64.5176 14.8311 63.696 14.8311C62.3546 14.8311 61.8482 15.726 61.8113 17.5459V19.8921C61.7954 20.4489 61.8971 21.0028 62.1098 21.5176V21.5444C62.1687 21.6623 62.2383 21.7745 62.3177 21.8796L62.3412 21.9064H59.2526L59.3063 21.8427C59.6686 21.2555 59.8408 20.5707 59.7992 19.882V17.69C59.7992 15.7662 59.4471 14.7908 58.6423 14.7908C57.264 14.7908 56.7442 15.7662 56.7442 17.69V19.872C56.7305 20.4275 56.8321 20.9798 57.0427 21.4942V21.521C57.1043 21.6373 57.1737 21.7493 57.2506 21.8561L57.2774 21.8796H54.1587L54.209 21.8159C54.3532 21.6215 54.7053 21.0115 54.7053 19.8552V16.3862C54.7117 15.8728 54.6231 15.3626 54.4437 14.8813C54.3772 14.7066 54.2905 14.5401 54.1855 14.3853C54.7074 14.6205 55.2722 14.7455 55.8446 14.7524C56.4171 14.7593 56.9848 14.648 57.5122 14.4255C57.93 14.2839 58.3688 14.2137 58.81 14.2177C59.2906 14.199 59.7661 14.3218 60.1775 14.5709C60.5888 14.8199 60.9179 15.1843 61.1239 15.6187C61.395 15.1914 61.7693 14.8391 62.2123 14.5943C62.6553 14.3495 63.1529 14.22 63.6591 14.2177C65.9328 14.2177 66.8952 15.9706 66.8952 18.1291V19.8686C66.8795 20.4243 66.9812 20.9771 67.1937 21.4908V21.5176C67.2539 21.6347 67.3234 21.7468 67.4016 21.8528L67.4284 21.8796H64.3097L64.36 21.8126L64.3566 21.8595Z" fill="white"/>
<path d="M73.0855 21.3132C75.0607 21.3132 76.4122 19.4563 76.4122 19.4563C75.879 20.8439 74.3062 22.0137 72.388 22.0137C69.8125 22.0137 68.2029 20.2339 68.2029 18.0788C68.2029 15.9237 69.8125 14.1942 72.388 14.1942C74.4269 14.1942 76.0265 15.2735 76.4793 17.0398C76.526 17.2121 76.5321 17.393 76.497 17.568C76.4619 17.7431 76.3866 17.9077 76.277 18.0487C76.1675 18.1897 76.0266 18.3034 75.8656 18.3808C75.7046 18.4581 75.5278 18.497 75.3491 18.4944H70.3424C70.6409 19.8954 71.4993 21.3132 73.099 21.3132H73.0855ZM71.6939 14.8445C70.3525 15.2064 70.1345 16.651 70.225 17.9112H74.0715C74.1374 17.9068 74.2016 17.8889 74.2602 17.8585C74.3189 17.8281 74.3706 17.7859 74.4121 17.7346C74.4537 17.6834 74.4842 17.624 74.5017 17.5604C74.5193 17.4968 74.5235 17.4302 74.5141 17.3649C74.2794 15.8835 73.2297 14.4289 71.7073 14.8445H71.6939Z" fill="white"/>
<path d="M81.0502 17.2845C82.898 17.5727 84.5613 18.0118 84.5613 19.701C84.5613 21.3902 82.7135 22.0271 80.9194 22.0271C79.739 22.0271 78.2366 21.6115 77.6833 20.7166C77.6242 20.6142 77.5931 20.4981 77.5934 20.3799C77.5937 20.2617 77.6252 20.1457 77.6848 20.0436C77.7444 19.9415 77.8299 19.857 77.9327 19.7986C78.0355 19.7402 78.1519 19.71 78.2701 19.7111H79.3734C79.3734 21.0216 80.2319 21.4506 80.9194 21.4506C81.6069 21.4506 82.519 21.0216 82.519 19.7111C82.519 19.1513 81.7511 18.9569 80.792 18.8162C78.9308 18.5279 77.4385 17.9716 77.4385 16.4499C77.4385 14.8679 79.4506 14.2412 80.8691 14.1909C81.9221 14.1909 83.5988 14.6333 84.1186 15.7896C84.1518 15.8893 84.161 15.9955 84.1455 16.0994C84.1301 16.2033 84.0904 16.3022 84.0297 16.388C83.969 16.4738 83.889 16.5441 83.7961 16.5933C83.7032 16.6424 83.6 16.6691 83.4949 16.6711H82.3111C82.3111 15.1897 81.4023 14.7473 80.8926 14.7473C80.3091 14.7473 79.4506 15.1897 79.4506 16.4231C79.4506 16.9694 80.3225 17.1638 81.0234 17.2677L81.0502 17.2845Z" fill="white"/>
<path d="M9.59407 14.1132L5.94041 17.7254L6.64173 18.4132L10.318 14.7786C10.6603 14.9991 11.0457 15.1458 11.4492 15.2091V22.1428H12.4333V15.2091C12.8524 15.1381 13.2514 14.9799 13.6041 14.745L17.2181 18.3181L17.9194 17.6303L14.311 14.0628C14.5832 13.6975 14.7652 13.2743 14.8427 12.8271H21.6806V11.8541H14.8257C14.7616 11.4552 14.6132 11.0742 14.3902 10.7358L17.7837 7.38079L17.088 6.69301L13.6945 10.048C13.3148 9.75749 12.8676 9.56528 12.3937 9.48885V2.85712H11.4322V9.47208C10.9799 9.54866 10.5518 9.72865 10.1823 9.9977L6.73788 6.59236L6.03655 7.27455L9.49227 10.6911C9.25232 11.0384 9.09209 11.4335 9.02283 11.8485H2.16797V12.8215H9.02283C9.1009 13.2925 9.29732 13.7367 9.59407 14.1132ZM11.9243 10.4003C12.3117 10.4036 12.6895 10.5202 13.01 10.7354C13.3305 10.9506 13.5794 11.2548 13.7253 11.6096C13.8713 11.9645 13.9077 12.3541 13.8301 12.7293C13.7524 13.1046 13.5642 13.4488 13.2891 13.7184C13.0139 13.9881 12.6642 14.1713 12.284 14.2448C11.9038 14.3183 11.51 14.2789 11.1524 14.1316C10.7948 13.9842 10.4893 13.7355 10.2743 13.4168C10.0594 13.0981 9.94475 12.7237 9.94473 12.3406C9.94472 12.0844 9.99604 11.8307 10.0957 11.5942C10.1954 11.3577 10.3415 11.143 10.5255 10.9626C10.7096 10.7822 10.9279 10.6397 11.168 10.5432C11.4081 10.4466 11.6651 10.3981 11.9243 10.4003Z" fill="#FADCD9" stroke="#FADCD9" stroke-miterlimit="10"/>
</svg>
