<svg width="28" height="28" viewBox="0 0 28 28" fill="none" xmlns="http://www.w3.org/2000/svg">
<circle cx="14" cy="14" r="14" fill="#FAF5F2"/>
<path d="M22.1547 6.32348H20.1407V5.96413C20.1407 5.24866 19.5624 4.66667 18.8517 4.66667C18.1389 4.66667 17.5591 5.24891 17.5591 5.96413V6.32348H15.3502V5.96413C15.3502 5.24866 14.7711 4.66667 14.0595 4.66667C13.3469 4.66667 12.767 5.24891 12.767 5.96413V6.32348H10.5582V5.96413C10.5582 5.24866 9.97912 4.66667 9.26748 4.66667C8.55559 4.66667 7.97651 5.24891 7.97651 5.96413V6.32348H5.96972C5.76544 6.32348 5.6001 6.4899 5.6001 6.69496V22.9619C5.6001 23.1669 5.76544 23.3333 5.96972 23.3333H22.1549C22.3592 23.3333 22.5245 23.1669 22.5245 22.9619V6.69496C22.5243 6.4899 22.359 6.32348 22.1547 6.32348ZM18.2981 5.96413C18.2981 5.65853 18.5464 5.40963 18.8515 5.40963C19.1546 5.40963 19.4012 5.65853 19.4012 5.96413V7.69523C19.4012 8.00108 19.1546 8.24998 18.8515 8.24998C18.5464 8.24998 18.2981 8.00108 18.2981 7.69523V5.96413ZM13.5063 5.96413C13.5063 5.65853 13.7544 5.40963 14.0595 5.40963C14.3636 5.40963 14.611 5.65853 14.611 5.96413V7.69523C14.611 8.00108 14.3636 8.24998 14.0595 8.24998C13.7544 8.24998 13.5063 8.00108 13.5063 7.69523V5.96413ZM8.71575 5.96413C8.71575 5.65853 8.96315 5.40963 9.26748 5.40963C9.57155 5.40963 9.81895 5.65853 9.81895 5.96413V7.69523C9.81895 8.00108 9.57155 8.24998 9.26748 8.24998C8.9634 8.24998 8.71575 8.00108 8.71575 7.69523V5.96413ZM21.7851 22.5901H6.33909V7.06619H7.97627V7.69498C7.97627 8.4107 8.55534 8.99269 9.26723 8.99269C9.97887 8.99269 10.5579 8.41046 10.5579 7.69498V7.06619H12.7668V7.69498C12.7668 8.4107 13.3466 8.99269 14.0592 8.99269C14.7709 8.99269 15.35 8.41046 15.35 7.69498V7.06619H17.5588V7.69498C17.5588 8.4107 18.1389 8.99269 18.8515 8.99269C19.5624 8.99269 20.1405 8.41046 20.1405 7.69498V7.06619H21.7848V22.5901H21.7851Z" fill="#F79489"/>
<path d="M17.6545 12.2574L13.5393 16.9447L11.4509 14.8215C11.308 14.6762 11.0767 14.6762 10.9338 14.8215C10.7909 14.9667 10.7909 15.202 10.9338 15.3473L13.2957 17.7489C13.3642 17.8189 13.4573 17.8578 13.5544 17.8578C13.5578 17.8578 13.5612 17.8578 13.5646 17.8575C13.6653 17.8546 13.7601 17.8099 13.8272 17.7336L18.2004 12.7527C18.335 12.5995 18.3218 12.3645 18.1711 12.2276C18.02 12.091 17.7894 12.1044 17.6545 12.2574Z" fill="#F79489"/>
</svg>
