<svg width="76" height="12" viewBox="0 0 76 12" fill="none" xmlns="http://www.w3.org/2000/svg">
<path d="M6.08 0L8.1467 3.68183L12.16 4.58359L9.424 7.76085L9.83765 12L6.08 10.2818L2.32235 12L2.736 7.76085L0 4.58359L4.01329 3.68183L6.08 0Z" fill="#FFCB45"/>
<path d="M22.04 0L24.1067 3.68183L28.12 4.58359L25.384 7.76085L25.7976 12L22.04 10.2818L18.2823 12L18.696 7.76085L15.96 4.58359L19.9733 3.68183L22.04 0Z" fill="#FFCB45"/>
<path d="M37.9999 0L40.0666 3.68183L44.0799 4.58359L41.3439 7.76085L41.7576 12L37.9999 10.2818L34.2423 12L34.6559 7.76085L31.9199 4.58359L35.9332 3.68183L37.9999 0Z" fill="#FFCB45"/>
<path d="M53.9599 0L56.0266 3.68183L60.0399 4.58359L57.3039 7.76085L57.7175 12L53.9599 10.2818L50.2022 12L50.6159 7.76085L47.8799 4.58359L51.8932 3.68183L53.9599 0Z" fill="#FFCB45"/>
<path d="M69.9198 0L71.9865 3.68183L75.9998 4.58359L73.2638 7.76085L73.6775 12L69.9198 10.2818L66.1622 12L66.5758 7.76085L63.8398 4.58359L67.8531 3.68183L69.9198 0Z" fill="#FFCB45"/>
</svg>
